<svg viewBox="0 0 900 480" xmlns="http://www.w3.org/2000/svg" font-family="'Segoe UI', -apple-system, sans-serif">
  <defs>
    <linearGradient id="bg2" x1="0%" y1="0%" x2="100%" y2="100%">
      <stop offset="0%" style="stop-color:#0f1117"/>
      <stop offset="100%" style="stop-color:#1a1d2e"/>
    </linearGradient>
    <filter id="shadow2">
      <feDropShadow dx="0" dy="3" stdDeviation="6" flood-color="#000" flood-opacity="0.4"/>
    </filter>
  </defs>

  <rect width="900" height="480" fill="url(#bg2)" rx="16"/>

  <!-- Title -->
  <text x="450" y="44" text-anchor="middle" fill="#e9ecef" font-size="18" font-weight="700">Tool Categories — 40+ Tools</text>

  <!-- Root node -->
  <rect x="330" y="68" width="240" height="44" rx="10" fill="#3b5bdb" filter="url(#shadow2)"/>
  <text x="450" y="87" text-anchor="middle" fill="#fff" font-size="13" font-weight="700">servicenow-mcp-server</text>
  <text x="450" y="103" text-anchor="middle" fill="#bac8ff" font-size="10">server.py · FastMCP</text>

  <!-- Connector lines from root to categories -->
  <line x1="450" y1="112" x2="450" y2="132" stroke="#444" stroke-width="1.5"/>
  <line x1="80" y1="132" x2="820" y2="132" stroke="#444" stroke-width="1.5"/>
  <line x1="80" y1="132" x2="80" y2="152" stroke="#444" stroke-width="1.5"/>
  <line x1="227" y1="132" x2="227" y2="152" stroke="#444" stroke-width="1.5"/>
  <line x1="374" y1="132" x2="374" y2="152" stroke="#444" stroke-width="1.5"/>
  <line x1="526" y1="132" x2="526" y2="152" stroke="#444" stroke-width="1.5"/>
  <line x1="673" y1="132" x2="673" y2="152" stroke="#444" stroke-width="1.5"/>
  <line x1="820" y1="132" x2="820" y2="152" stroke="#444" stroke-width="1.5"/>

  <!-- ── CAT 1: Debugging ── -->
  <rect x="20" y="152" width="120" height="40" rx="8" fill="#862e2e" filter="url(#shadow2)"/>
  <text x="80" y="170" text-anchor="middle" fill="#fff" font-size="11" font-weight="700">🔍 Debugging</text>
  <text x="80" y="184" text-anchor="middle" fill="#ffc9c9" font-size="9">3 tools</text>
  <line x1="80" y1="192" x2="80" y2="210" stroke="#862e2e" stroke-width="1.5"/>
  <line x1="30" y1="210" x2="130" y2="210" stroke="#862e2e" stroke-width="1.5"/>
  <line x1="30" y1="210" x2="30" y2="222" stroke="#862e2e" stroke-width="1.5"/>
  <line x1="80" y1="210" x2="80" y2="222" stroke="#862e2e" stroke-width="1.5"/>
  <line x1="130" y1="210" x2="130" y2="222" stroke="#862e2e" stroke-width="1.5"/>
  <rect x="4" y="222" width="52" height="44" rx="6" fill="#1e1010" stroke="#862e2e" stroke-width="1"/>
  <text x="30" y="240" text-anchor="middle" fill="#ff8787" font-size="8.5" font-weight="600">query_</text>
  <text x="30" y="252" text-anchor="middle" fill="#ff8787" font-size="8.5" font-weight="600">syslog</text>
  <text x="30" y="261" text-anchor="middle" fill="#888" font-size="7.5">system logs</text>
  <rect x="54" y="222" width="52" height="44" rx="6" fill="#1e1010" stroke="#862e2e" stroke-width="1"/>
  <text x="80" y="240" text-anchor="middle" fill="#ff8787" font-size="8.5" font-weight="600">query_gen</text>
  <text x="80" y="252" text-anchor="middle" fill="#ff8787" font-size="8.5" font-weight="600">_ai_logs</text>
  <text x="80" y="261" text-anchor="middle" fill="#888" font-size="7.5">LLM logs</text>
  <rect x="104" y="222" width="52" height="44" rx="6" fill="#1e1010" stroke="#862e2e" stroke-width="1"/>
  <text x="130" y="240" text-anchor="middle" fill="#ff8787" font-size="8.5" font-weight="600">query_gen</text>
  <text x="130" y="252" text-anchor="middle" fill="#ff8787" font-size="8.5" font-weight="600">_detailed</text>
  <text x="130" y="261" text-anchor="middle" fill="#888" font-size="7.5">full payload</text>

  <!-- ── CAT 2: Flow Designer ── -->
  <rect x="167" y="152" width="120" height="40" rx="8" fill="#1864ab" filter="url(#shadow2)"/>
  <text x="227" y="170" text-anchor="middle" fill="#fff" font-size="11" font-weight="700">🌊 Flow Designer</text>
  <text x="227" y="184" text-anchor="middle" fill="#a5d8ff" font-size="9">4 tools</text>
  <line x1="227" y1="192" x2="227" y2="210" stroke="#1864ab" stroke-width="1.5"/>
  <line x1="177" y1="210" x2="277" y2="210" stroke="#1864ab" stroke-width="1.5"/>
  <line x1="177" y1="210" x2="177" y2="222" stroke="#1864ab" stroke-width="1.5"/>
  <line x1="218" y1="210" x2="218" y2="222" stroke="#1864ab" stroke-width="1.5"/>
  <line x1="258" y1="210" x2="258" y2="222" stroke="#1864ab" stroke-width="1.5"/>
  <line x1="277" y1="210" x2="277" y2="222" stroke="#1864ab" stroke-width="1.5"/>
  <rect x="151" y="222" width="52" height="44" rx="6" fill="#101820" stroke="#1864ab" stroke-width="1"/>
  <text x="177" y="240" text-anchor="middle" fill="#74c0fc" font-size="8.5" font-weight="600">query_flow</text>
  <text x="177" y="252" text-anchor="middle" fill="#74c0fc" font-size="8.5" font-weight="600">_contexts</text>
  <text x="177" y="261" text-anchor="middle" fill="#888" font-size="7.5">execution</text>
  <rect x="192" y="222" width="52" height="44" rx="6" fill="#101820" stroke="#1864ab" stroke-width="1"/>
  <text x="218" y="240" text-anchor="middle" fill="#74c0fc" font-size="8.5" font-weight="600">query_flow</text>
  <text x="218" y="252" text-anchor="middle" fill="#74c0fc" font-size="8.5" font-weight="600">_logs</text>
  <text x="218" y="261" text-anchor="middle" fill="#888" font-size="7.5">action logs</text>
  <rect x="232" y="222" width="52" height="44" rx="6" fill="#101820" stroke="#1864ab" stroke-width="1"/>
  <text x="258" y="240" text-anchor="middle" fill="#74c0fc" font-size="8.5" font-weight="600">get_flow</text>
  <text x="258" y="252" text-anchor="middle" fill="#74c0fc" font-size="8.5" font-weight="600">_details</text>
  <text x="258" y="261" text-anchor="middle" fill="#888" font-size="7.5">full detail</text>
  <rect x="252" y="222" width="52" height="44" rx="6" fill="#101820" stroke="#1864ab" stroke-width="1"/>
  <text x="278" y="240" text-anchor="middle" fill="#74c0fc" font-size="8.5" font-weight="600">query_flow</text>
  <text x="278" y="252" text-anchor="middle" fill="#74c0fc" font-size="8.5" font-weight="600">_reports</text>
  <text x="278" y="261" text-anchor="middle" fill="#888" font-size="7.5">runtime data</text>

  <!-- ── CAT 3: AI Agent Config ── -->
  <rect x="314" y="152" width="120" height="40" rx="8" fill="#5c3d99" filter="url(#shadow2)"/>
  <text x="374" y="168" text-anchor="middle" fill="#fff" font-size="11" font-weight="700">⚙️ AI Agent</text>
  <text x="374" y="181" text-anchor="middle" fill="#fff" font-size="11" font-weight="700">Config</text>
  <text x="374" y="193" text-anchor="middle" fill="#d0bfff" font-size="9">5 tools</text>
  <line x1="374" y1="192" x2="374" y2="210" stroke="#5c3d99" stroke-width="1.5"/>
  <line x1="324" y1="210" x2="424" y2="210" stroke="#5c3d99" stroke-width="1.5"/>
  <line x1="324" y1="210" x2="324" y2="222" stroke="#5c3d99" stroke-width="1.5"/>
  <line x1="358" y1="210" x2="358" y2="222" stroke="#5c3d99" stroke-width="1.5"/>
  <line x1="390" y1="210" x2="390" y2="222" stroke="#5c3d99" stroke-width="1.5"/>
  <line x1="424" y1="210" x2="424" y2="222" stroke="#5c3d99" stroke-width="1.5"/>
  <rect x="298" y="222" width="52" height="44" rx="6" fill="#180f2e" stroke="#5c3d99" stroke-width="1"/>
  <text x="324" y="240" text-anchor="middle" fill="#b197fc" font-size="8.5" font-weight="600">list_ai</text>
  <text x="324" y="252" text-anchor="middle" fill="#b197fc" font-size="8.5" font-weight="600">_agents</text>
  <text x="324" y="261" text-anchor="middle" fill="#888" font-size="7.5">all agents</text>
  <rect x="332" y="222" width="52" height="44" rx="6" fill="#180f2e" stroke="#5c3d99" stroke-width="1"/>
  <text x="358" y="240" text-anchor="middle" fill="#b197fc" font-size="8.5" font-weight="600">get_agent</text>
  <text x="358" y="252" text-anchor="middle" fill="#b197fc" font-size="8.5" font-weight="600">_details</text>
  <text x="358" y="261" text-anchor="middle" fill="#888" font-size="7.5">single agent</text>
  <rect x="364" y="222" width="52" height="44" rx="6" fill="#180f2e" stroke="#5c3d99" stroke-width="1"/>
  <text x="390" y="240" text-anchor="middle" fill="#b197fc" font-size="8.5" font-weight="600">list_agentic</text>
  <text x="390" y="252" text-anchor="middle" fill="#b197fc" font-size="8.5" font-weight="600">_workflows</text>
  <text x="390" y="261" text-anchor="middle" fill="#888" font-size="7.5">use cases</text>
  <rect x="398" y="222" width="52" height="44" rx="6" fill="#180f2e" stroke="#5c3d99" stroke-width="1"/>
  <text x="424" y="240" text-anchor="middle" fill="#b197fc" font-size="8.5" font-weight="600">list_agent</text>
  <text x="424" y="252" text-anchor="middle" fill="#b197fc" font-size="8.5" font-weight="600">_tools</text>
  <text x="424" y="261" text-anchor="middle" fill="#888" font-size="7.5">+ triggers</text>

  <!-- ── CAT 4: Exec Monitoring ── -->
  <rect x="466" y="152" width="120" height="40" rx="8" fill="#0d6b47" filter="url(#shadow2)"/>
  <text x="526" y="168" text-anchor="middle" fill="#fff" font-size="11" font-weight="700">📊 Execution</text>
  <text x="526" y="181" text-anchor="middle" fill="#fff" font-size="11" font-weight="700">Monitoring</text>
  <text x="526" y="193" text-anchor="middle" fill="#b2f2bb" font-size="9">5 tools</text>
  <line x1="526" y1="192" x2="526" y2="210" stroke="#0d6b47" stroke-width="1.5"/>
  <line x1="476" y1="210" x2="576" y2="210" stroke="#0d6b47" stroke-width="1.5"/>
  <line x1="476" y1="210" x2="476" y2="222" stroke="#0d6b47" stroke-width="1.5"/>
  <line x1="510" y1="210" x2="510" y2="222" stroke="#0d6b47" stroke-width="1.5"/>
  <line x1="544" y1="210" x2="544" y2="222" stroke="#0d6b47" stroke-width="1.5"/>
  <line x1="576" y1="210" x2="576" y2="222" stroke="#0d6b47" stroke-width="1.5"/>
  <rect x="450" y="222" width="52" height="44" rx="6" fill="#0a1f14" stroke="#0d6b47" stroke-width="1"/>
  <text x="476" y="240" text-anchor="middle" fill="#69db7c" font-size="8.5" font-weight="600">query_exec</text>
  <text x="476" y="252" text-anchor="middle" fill="#69db7c" font-size="8.5" font-weight="600">_plans</text>
  <text x="476" y="261" text-anchor="middle" fill="#888" font-size="7.5">workflow runs</text>
  <rect x="484" y="222" width="52" height="44" rx="6" fill="#0a1f14" stroke="#0d6b47" stroke-width="1"/>
  <text x="510" y="240" text-anchor="middle" fill="#69db7c" font-size="8.5" font-weight="600">query_exec</text>
  <text x="510" y="252" text-anchor="middle" fill="#69db7c" font-size="8.5" font-weight="600">_tasks</text>
  <text x="510" y="261" text-anchor="middle" fill="#888" font-size="7.5">agent tasks</text>
  <rect x="518" y="222" width="52" height="44" rx="6" fill="#0a1f14" stroke="#0d6b47" stroke-width="1"/>
  <text x="544" y="240" text-anchor="middle" fill="#69db7c" font-size="8.5" font-weight="600">query_tool</text>
  <text x="544" y="252" text-anchor="middle" fill="#69db7c" font-size="8.5" font-weight="600">_executions</text>
  <text x="544" y="261" text-anchor="middle" fill="#888" font-size="7.5">tool calls</text>
  <rect x="550" y="222" width="52" height="44" rx="6" fill="#0a1f14" stroke="#0d6b47" stroke-width="1"/>
  <text x="576" y="240" text-anchor="middle" fill="#69db7c" font-size="8.5" font-weight="600">get_exec</text>
  <text x="576" y="252" text-anchor="middle" fill="#69db7c" font-size="8.5" font-weight="600">_details</text>
  <text x="576" y="261" text-anchor="middle" fill="#888" font-size="7.5">+ messages</text>

  <!-- ── CAT 5: Write Operations ── -->
  <rect x="613" y="152" width="120" height="40" rx="8" fill="#7d4e00" filter="url(#shadow2)"/>
  <text x="673" y="168" text-anchor="middle" fill="#fff" font-size="11" font-weight="700">✍️ Write Ops</text>
  <text x="673" y="181" text-anchor="middle" fill="#fff" font-size="8" font-weight="400">(CRUD)</text>
  <text x="673" y="193" text-anchor="middle" fill="#ffe066" font-size="9">14 tools</text>
  <line x1="673" y1="192" x2="673" y2="210" stroke="#7d4e00" stroke-width="1.5"/>
  <line x1="623" y1="210" x2="723" y2="210" stroke="#7d4e00" stroke-width="1.5"/>
  <line x1="623" y1="210" x2="623" y2="222" stroke="#7d4e00" stroke-width="1.5"/>
  <line x1="657" y1="210" x2="657" y2="222" stroke="#7d4e00" stroke-width="1.5"/>
  <line x1="691" y1="210" x2="691" y2="222" stroke="#7d4e00" stroke-width="1.5"/>
  <line x1="723" y1="210" x2="723" y2="222" stroke="#7d4e00" stroke-width="1.5"/>
  <rect x="597" y="222" width="52" height="44" rx="6" fill="#1e1200" stroke="#7d4e00" stroke-width="1"/>
  <text x="623" y="240" text-anchor="middle" fill="#ffd43b" font-size="8.5" font-weight="600">create /</text>
  <text x="623" y="252" text-anchor="middle" fill="#ffd43b" font-size="8.5" font-weight="600">update /</text>
  <text x="623" y="261" text-anchor="middle" fill="#888" font-size="7.5">ai_agent</text>
  <rect x="631" y="222" width="52" height="44" rx="6" fill="#1e1200" stroke="#7d4e00" stroke-width="1"/>
  <text x="657" y="240" text-anchor="middle" fill="#ffd43b" font-size="8.5" font-weight="600">create /</text>
  <text x="657" y="252" text-anchor="middle" fill="#ffd43b" font-size="8.5" font-weight="600">update /</text>
  <text x="657" y="261" text-anchor="middle" fill="#888" font-size="7.5">workflow</text>
  <rect x="665" y="222" width="52" height="44" rx="6" fill="#1e1200" stroke="#7d4e00" stroke-width="1"/>
  <text x="691" y="240" text-anchor="middle" fill="#ffd43b" font-size="8.5" font-weight="600">create /</text>
  <text x="691" y="252" text-anchor="middle" fill="#ffd43b" font-size="8.5" font-weight="600">update /</text>
  <text x="691" y="261" text-anchor="middle" fill="#888" font-size="7.5">tool</text>
  <rect x="697" y="222" width="52" height="44" rx="6" fill="#1e1200" stroke="#7d4e00" stroke-width="1"/>
  <text x="723" y="240" text-anchor="middle" fill="#ffd43b" font-size="8.5" font-weight="600">create /</text>
  <text x="723" y="252" text-anchor="middle" fill="#ffd43b" font-size="8.5" font-weight="600">update /</text>
  <text x="723" y="261" text-anchor="middle" fill="#888" font-size="7.5">trigger</text>

  <!-- ── CAT 6: Utilities ── -->
  <rect x="760" y="152" width="120" height="40" rx="8" fill="#2f4858" filter="url(#shadow2)"/>
  <text x="820" y="170" text-anchor="middle" fill="#fff" font-size="11" font-weight="700">🛠️ Utilities</text>
  <text x="820" y="184" text-anchor="middle" fill="#a9d4e8" font-size="9">2 tools</text>
  <line x1="820" y1="192" x2="820" y2="210" stroke="#2f4858" stroke-width="1.5"/>
  <line x1="784" y1="210" x2="856" y2="210" stroke="#2f4858" stroke-width="1.5"/>
  <line x1="784" y1="210" x2="784" y2="222" stroke="#2f4858" stroke-width="1.5"/>
  <line x1="856" y1="210" x2="856" y2="222" stroke="#2f4858" stroke-width="1.5"/>
  <rect x="758" y="222" width="52" height="44" rx="6" fill="#0e1820" stroke="#2f4858" stroke-width="1"/>
  <text x="784" y="240" text-anchor="middle" fill="#74c0fc" font-size="8.5" font-weight="600">clone_ai</text>
  <text x="784" y="252" text-anchor="middle" fill="#74c0fc" font-size="8.5" font-weight="600">_agent</text>
  <text x="784" y="261" text-anchor="middle" fill="#888" font-size="7.5">copy agent</text>
  <rect x="830" y="222" width="52" height="44" rx="6" fill="#0e1820" stroke="#2f4858" stroke-width="1"/>
  <text x="856" y="240" text-anchor="middle" fill="#74c0fc" font-size="8.5" font-weight="600">cleanup</text>
  <text x="856" y="252" text-anchor="middle" fill="#74c0fc" font-size="8.5" font-weight="600">_configs</text>
  <text x="856" y="261" text-anchor="middle" fill="#888" font-size="7.5">dedup</text>

  <!-- Footer -->
  <text x="450" y="296" text-anchor="middle" fill="#555" font-size="9">Each tool maps to one or more ServiceNow REST API calls · All tools return plain strings to Claude's context</text>

  <!-- Read / Write badges -->
  <rect x="200" y="310" width="500" height="50" rx="10" fill="#ffffff06" stroke="#ffffff10" stroke-width="1"/>
  <text x="450" y="328" text-anchor="middle" fill="#aaa" font-size="10" font-weight="600">ACCESS PATTERNS</text>
  <rect x="220" y="334" width="80" height="18" rx="5" fill="#1a3a1a" stroke="#40c057" stroke-width="1"/>
  <text x="260" y="347" text-anchor="middle" fill="#69db7c" font-size="9">READ · GET only</text>
  <text x="320" y="347" fill="#555" font-size="9">Debugging, Flow, Config, Exec Monitoring</text>
  <rect x="220" y="354" width="80" height="18" rx="5" fill="#3a1a1a" stroke="#fa5252" stroke-width="1"/>
  <text x="260" y="367" text-anchor="middle" fill="#ff6b6b" font-size="9">WRITE · GET+POST</text>
  <text x="320" y="367" fill="#555" font-size="9">Write Operations, Utilities · requires sn_aia_admin</text>
</svg>
